<svg height="512pt" viewBox="0 -19 512 511" width="512pt" xmlns="http://www.w3.org/2000/svg"><path d="m492 114.316406h-71.554688l-239.476562-111.933594c-8.929688-4.171874-19.570312-1.21875-25.066406 6.960938l-70.558594 104.972656h-65.34375c-11.046875 0-20 8.953125-20 20v320.183594c0 11.046875 8.953125 20 20 20h472c11.046875 0 20-8.953125 20-20 0-16.679688 0-302.621094 0-320.183594 0-11.046875-8.953125-20-20-20zm-312.453125-68.445312 146.433594 68.445312h-192.441407zm292.453125 304.503906h-140c-30.878906 0-56-25.121094-56-56s25.121094-56 56-56h140zm0-152h-140c-52.933594 0-96 43.066406-96 96 0 52.9375 43.066406 96 96 96h140v44.125h-432v-280.183594h432zm0 0"/></svg>